HIERARCHY
ROOT root
{
	OFFSET 0.000000 0.000000 0.000000
	CHANNELS 6 Xposition Yposition Zposition Zrotation Yrotation Xrotation
	JOINT lhip
	{
		OFFSET 0.058581 -0.082280 -0.017664
		CHANNELS 3 Zrotation Yrotation Xrotation
		JOINT lknee
		{
			OFFSET 0.043451 -0.386469 0.008037
			CHANNELS 3 Zrotation Yrotation Xrotation
			JOINT lankle
			{
				OFFSET -0.014790 -0.426874 -0.037428
				CHANNELS 3 Zrotation Yrotation Xrotation
				JOINT ltoe
				{
					OFFSET 0.041054 -0.060286 0.122042
					CHANNELS 3 Zrotation Yrotation Xrotation
					End Site
					{
						OFFSET 0.000000 0.000000 0.000000
					}
				}
			}
		}
	}
	JOINT rhip
	{
		OFFSET -0.060310 -0.090513 -0.013543
		CHANNELS 3 Zrotation Yrotation Xrotation
		JOINT rknee
		{
			OFFSET -0.043257 -0.383688 -0.004843
			CHANNELS 3 Zrotation Yrotation Xrotation
			JOINT rankle
			{
				OFFSET 0.019056 -0.420046 -0.034562
				CHANNELS 3 Zrotation Yrotation Xrotation
				JOINT rtoe
				{
					OFFSET -0.034840 -0.062106 0.130323
					CHANNELS 3 Zrotation Yrotation Xrotation
					End Site
					{
						OFFSET 0.000000 0.000000 0.000000
					}
				}
			}
		}
	}
	JOINT lowerback
	{
		OFFSET 0.004439 0.124404 -0.038385
		CHANNELS 3 Zrotation Yrotation Xrotation
		JOINT upperback
		{
			OFFSET 0.004488 0.137956 0.026820
			CHANNELS 3 Zrotation Yrotation Xrotation
			JOINT chest
			{
				OFFSET -0.002265 0.056032 0.002855
				CHANNELS 3 Zrotation Yrotation Xrotation
				JOINT lowerneck
				{
					OFFSET -0.013390 0.211636 -0.033468
					CHANNELS 3 Zrotation Yrotation Xrotation
					JOINT upperneck
					{
						OFFSET 0.010113 0.088937 0.050410
						CHANNELS 3 Zrotation Yrotation Xrotation
						End Site
						{
							OFFSET 0.000000 0.000000 0.000000
						}
					}
				}
				JOINT lclavicle
				{
					OFFSET 0.071702 0.114000 -0.018898
					CHANNELS 3 Zrotation Yrotation Xrotation
					JOINT lshoulder
					{
						OFFSET 0.122921 0.045205 -0.019046
						CHANNELS 3 Zrotation Yrotation Xrotation
						JOINT lelbow
						{
							OFFSET 0.255332 -0.015649 -0.022946
							CHANNELS 3 Zrotation Yrotation Xrotation
							JOINT lwrist
							{
								OFFSET 0.265709 0.012698 -0.007375
								CHANNELS 3 Zrotation Yrotation Xrotation
								End Site
								{
									OFFSET 0.000000 0.000000 0.000000
								}
							}
						}
					}
				}
				JOINT rclavicle
				{
					OFFSET -0.082954 0.112472 -0.023707
					CHANNELS 3 Zrotation Yrotation Xrotation
					JOINT rshoulder
					{
						OFFSET -0.113228 0.046853 -0.008472
						CHANNELS 3 Zrotation Yrotation Xrotation
						JOINT relbow
						{
							OFFSET -0.260127 -0.014369 -0.031269
							CHANNELS 3 Zrotation Yrotation Xrotation
							JOINT rwrist
							{
								OFFSET -0.269108 0.006794 -0.006027
								CHANNELS 3 Zrotation Yrotation Xrotation
								End Site
								{
									OFFSET 0.000000 0.000000 0.000000
								}
							}
						}
					}
				}
			}
		}
	}
}
MOTION
Frames: 10
Frame Time: 0.033333
-0.768849 0.287994 0.990185 89.259640 0.913577 87.326514 3.563382 1.445857 -5.331675 -5.673304 1.823866 12.785120 1.489298 10.264926 -8.743840 0.000000 -0.000000 0.000000 -4.059184 -2.362366 -6.918163 3.884553 -3.351506 14.707039 3.195260 -5.595088 -7.048533 0.000000 -0.000000 0.000000 -0.341833 0.839133 9.695524 2.113698 -4.180956 6.567935 0.412326 -1.914821 0.898891 -0.677309 1.632643 12.433534 0.891447 -1.593360 12.011047 -19.468218 -1.583572 1.588661 -64.476523 -15.150374 14.362781 7.261485 -19.160957 -0.104450 -3.716411 -6.356845 -2.156994 21.747251 4.749225 2.246174 59.867763 14.396221 14.210460 -11.488965 19.814218 -4.998915 4.102464 4.319837 -1.653460 
-0.768905 0.287957 0.990069 89.264666 0.920390 87.332222 3.571614 1.427955 -5.423100 -5.676227 1.847828 12.936583 1.568796 10.260765 -8.777613 0.000000 -0.000000 0.000000 -4.049148 -2.311019 -6.978046 3.890869 -3.344914 14.802361 3.220354 -5.670976 -7.088349 0.000000 -0.000000 0.000000 -0.335027 0.834464 9.742584 2.097125 -4.183647 6.531324 0.415408 -1.923023 0.944139 -0.658034 1.580165 12.370981 0.883551 -1.590943 12.080324 -19.416650 -1.626450 1.616357 -64.519755 -15.178303 14.338393 7.295449 -19.220808 -0.095514 -3.684318 -6.319264 -2.258771 21.788485 4.762581 2.316244 59.832057 14.499157 14.211450 -11.487862 19.903464 -5.093883 4.063767 4.278122 -1.692402 
-0.768936 0.287924 0.989924 89.254182 0.933253 87.319843 3.586324 1.399163 -5.494661 -5.680707 1.839875 13.086645 1.586557 10.313759 -8.819868 0.000000 -0.000000 0.000000 -4.031989 -2.283902 -7.049881 3.887513 -3.357560 14.949975 3.207269 -5.689966 -7.123846 0.000000 -0.000000 0.000000 -0.343381 0.836375 9.820311 2.108460 -4.180297 6.530757 0.430448 -1.926833 0.950539 -0.642728 1.559653 12.311250 0.885668 -1.609129 12.112598 -19.413683 -1.663466 1.618974 -64.533625 -15.200745 14.335618 7.329972 -19.282680 -0.136979 -3.639303 -6.326921 -2.315590 21.797602 4.788780 2.319436 59.819591 14.527816 14.209984 -11.515707 20.004888 -5.110722 4.041301 4.284970 -1.735765 
-0.769072 0.287906 0.989694 89.227040 0.943747 87.302739 3.602108 1.347942 -5.612879 -5.690462 1.859576 13.325969 1.597875 10.382933 -8.886613 0.000000 -0.000000 0.000000 -4.013129 -2.236436 -7.187946 3.874095 -3.371735 15.205361 3.180455 -5.724774 -7.178506 0.000000 -0.000000 0.000000 -0.356258 0.831884 9.940401 2.114287 -4.171643 6.522912 0.439608 -1.927600 0.969459 -0.605703 1.580677 12.231631 0.890193 -1.602256 12.159909 -19.402823 -1.680353 1.585205 -64.529612 -15.226433 14.340218 7.361176 -19.386163 -0.210041 -3.588763 -6.345469 -2.392584 21.806987 4.809325 2.288977 59.801883 14.556353 14.220320 -11.539206 20.083542 -5.127339 4.028042 4.300883 -1.774572 
-0.769248 0.287923 0.989539 89.205318 0.947569 87.293153 3.609488 1.318787 -5.703583 -5.703386 1.869291 13.491569 1.608640 10.432425 -8.922621 0.000000 -0.000000 0.000000 -4.002932 -2.191253 -7.306226 3.859922 -3.381469 15.407021 3.165942 -5.753151 -7.217831 0.000000 -0.000000 0.000000 -0.362449 0.813591 10.028857 2.110800 -4.166965 6.517891 0.440206 -1.930948 0.987548 -0.588471 1.622447 12.183073 0.890299 -1.563013 12.183785 -19.385160 -1.677000 1.564475 -64.522947 -15.232209 14.336419 7.397206 -19.455683 -0.277107 -3.572142 -6.362760 -2.456226 21.802087 4.827266 2.264150 59.795570 14.570660 14.225742 -11.549556 20.099679 -5.145487 4.036166 4.319010 -1.799278 
-0.769710 0.287964 0.989296 89.145728 0.942183 87.285175 3.607518 1.268676 -5.872291 -5.723450 1.890040 13.763178 1.622320 10.526492 -8.960335 0.000000 -0.000000 0.000000 -3.989815 -2.076596 -7.548884 3.823968 -3.397295 15.774061 3.154099 -5.825244 -7.259494 0.000000 -0.000000 0.000000 -0.387133 0.774929 10.175589 2.102250 -4.152640 6.535076 0.435049 -1.919006 1.009942 -0.557477 1.674076 12.042811 0.889308 -1.561323 12.194824 -19.331614 -1.647063 1.539639 -64.500202 -15.221553 14.304378 7.437517 -19.601985 -0.419705 -3.579617 -6.404822 -2.558307 21.787427 4.864813 2.229800 59.778379 14.567581 14.217128 -11.573521 20.105001 -5.174767 4.058722 4.380354 -1.796013 
-0.770796 0.288082 0.989039 89.066627 0.938286 87.303405 3.602335 1.197665 -6.216754 -5.760624 1.901697 14.256426 1.690516 10.659234 -9.061314 0.000000 -0.000000 0.000000 -3.959640 -1.909279 -7.981695 3.776887 -3.421907 16.351929 3.100702 -5.946999 -7.348474 0.000000 -0.000000 0.000000 -0.432098 0.740744 10.424626 2.121127 -4.126912 6.513450 0.435501 -1.898673 1.018927 -0.529403 1.698058 11.785697 0.876794 -1.561412 12.196285 -19.324435 -1.564891 1.442559 -64.380187 -15.166875 14.296352 7.416727 -19.757373 -0.583432 -3.576296 -6.438758 -2.636477 21.847009 4.828283 2.130748 59.622900 14.483367 14.184252 -11.566366 20.186919 -5.219285 4.103155 4.456759 -1.734787 
-0.772583 0.288249 0.988573 88.981359 0.953139 87.373110 3.621962 1.097265 -6.772317 -5.829041 1.892021 14.956002 1.813101 10.842630 -9.213256 0.000000 -0.000000 0.000000 -3.885177 -1.773880 -8.654370 3.695748 -3.408674 17.180554 3.014327 -6.071519 -7.504540 0.000000 -0.000000 0.000000 -0.476085 0.722742 10.781514 2.167306 -4.117656 6.439226 0.444704 -1.884678 1.014839 -0.509897 1.702269 11.411990 0.851592 -1.529214 12.153593 -19.312909 -1.415175 1.310215 -64.233837 -15.027873 14.314453 7.411340 -19.994380 -0.770779 -3.486501 -6.419936 -2.749621 21.918503 4.700241 2.009922 59.401889 14.357386 14.122411 -11.551241 20.389066 -5.298372 4.107474 4.473647 -1.728071 
-0.775160 0.288339 0.987763 88.878558 0.940892 87.517665 3.659391 1.078637 -7.396367 -5.960407 1.903007 15.525643 1.955877 10.983405 -9.300009 0.000000 -0.000000 0.000000 -3.835028 -1.622995 -9.521224 3.591921 -3.407918 18.107431 2.979752 -6.174501 -7.675364 0.000000 -0.000000 0.000000 -0.598433 0.695568 11.195627 2.216320 -4.085540 6.388433 0.484222 -1.864921 1.034194 -0.454189 1.792387 10.942771 0.854333 -1.493038 12.009909 -19.207761 -1.255316 1.168507 -64.138395 -14.850796 14.301606 7.440312 -20.261956 -1.087894 -3.364301 -6.403607 -2.983552 21.955170 4.581054 1.923951 59.191460 14.215239 14.016964 -11.608465 20.650520 -5.467278 4.092148 4.474497 -1.785193 
-0.779478 0.288489 0.986598 88.823772 0.878425 87.736737 3.669844 1.083153 -8.232279 -6.132187 1.923029 16.097340 2.094055 11.105145 -9.320960 0.000000 -0.000000 0.000000 -3.834867 -1.455628 -10.638364 3.482089 -3.392809 19.131388 2.886748 -6.311161 -7.881108 0.000000 -0.000000 0.000000 -0.805463 0.645289 11.875620 2.252412 -4.083057 6.288816 0.563431 -1.866704 1.109097 -0.404610 1.895694 10.298436 0.879704 -1.446251 11.747351 -19.036032 -1.077410 1.086908 -63.941958 -14.601016 14.198399 7.472804 -20.604812 -1.604387 -3.199225 -6.470630 -3.452158 21.979994 4.463409 1.833436 58.940424 13.970358 13.847032 -11.729227 20.794680 -5.717212 4.085764 4.551425 -1.899747 
